<svg width="100" height="100" viewBox="0 0 100 100" fill="none" xmlns="http://www.w3.org/2000/svg">
<g id="Group 432">
<g id="Group 428">
<g id="Group 425">
<path id="Vector 3" d="M40.3344 34.9695C40.3344 34.9695 55.2279 24.1511 67.9855 28.0378C79.8296 31.6463 89.5109 47.3261 89.5109 47.3261" stroke="white"/>
<path id="Vector 4" d="M36.9533 41.0605C36.9533 41.0605 38.3066 35.8515 40.8759 36.4971C43.4453 37.1427 40.4766 41.9458 43.046 42.5914C45.6153 43.237 46.1791 37.6764 48.7094 38.4654C51.1164 39.216 48.7376 44.0215 51.1818 44.6357C53.626 45.2498 54.9173 40.0253 57.3615 40.6395C59.8057 41.2536 57.423 46.372 60.0184 46.856C62.5019 47.3192 63.3269 41.8152 65.6818 42.7301C67.8723 43.5811 65.5727 48.2516 67.8518 48.8243C70.131 49.397 71.236 44.1257 73.5152 44.6984C75.7943 45.2711 73.8073 50.4875 76.1204 50.902C78.3617 51.3035 78.6509 46.3009 80.9134 46.5573C83.3314 46.8314 81.1007 52.4869 83.5186 52.7609C85.7812 53.0173 86.1033 47.8614 88.3116 48.4163C90.52 48.9712 90.0465 54.4012 90.0465 54.4012" stroke="white"/>
</g>
<g id="Group 427">
<path id="Vector 9" d="M17.5559 32.9246C16.2701 30.7925 17.7527 27.4936 20.2739 27.0919C22.4503 26.7451 24.6903 28.0151 24.9722 30.1514C25.2329 32.1263 24.3192 34.183 22.362 34.7406C20.5053 35.2695 18.5376 34.5525 17.5559 32.9246Z" stroke="white"/>
<path id="Vector 10" d="M21.0895 21.5386V25.4649" stroke="white"/>
<path id="Vector 11" d="M21.0895 36.4583V40.3845" stroke="white"/>
<path id="Vector 12" d="M15.5929 31.0198H11.6666" stroke="white"/>
<path id="Vector 13" d="M30.5125 30.9036H26.5862" stroke="white"/>
<path id="Vector 14" d="M14.1219 24.6174L17.0251 27.2608" stroke="white"/>
<path id="Vector 15" d="M25.1541 34.6624L28.0572 37.3057" stroke="white"/>
<path id="Vector 16" d="M17.4321 35.0652L14.7887 37.9683" stroke="white"/>
<path id="Vector 17" d="M27.3905 23.9551L24.7471 26.8582" stroke="white"/>
<circle id="Ellipse 72" cx="49.8077" cy="49.8077" r="49.3077" stroke="white"/>
<path id="Vector 9_2" d="M17.5559 32.9246C16.2701 30.7925 17.7527 27.4936 20.2739 27.0919C22.4503 26.7451 24.6903 28.0151 24.9722 30.1514C25.2329 32.1263 24.3192 34.183 22.362 34.7406C20.5053 35.2695 18.5376 34.5525 17.5559 32.9246Z" stroke="white"/>
<path id="Vector 10_2" d="M21.0895 21.5386V25.4649" stroke="white"/>
<path id="Vector 11_2" d="M21.0895 36.4583V40.3845" stroke="white"/>
<path id="Vector 12_2" d="M15.5929 31.0198H11.6666" stroke="white"/>
<path id="Vector 13_2" d="M30.5125 30.9036H26.5863" stroke="white"/>
<path id="Vector 14_2" d="M14.1219 24.6174L17.0251 27.2608" stroke="white"/>
<path id="Vector 15_2" d="M25.1541 34.6624L28.0572 37.3057" stroke="white"/>
<path id="Vector 16_2" d="M17.4321 35.0652L14.7887 37.9683" stroke="white"/>
<path id="Vector 17_2" d="M27.3905 23.9551L24.7471 26.8582" stroke="white"/>
<circle id="Ellipse 72_2" cx="49.8077" cy="49.8077" r="49.3077" stroke="white"/>
<path id="Vector 5" d="M59.6795 49.3589L52.0513 71.3461" stroke="white"/>
<path id="Vector 6" d="M63.2692 49.3589L55.1923 72.2435" stroke="white"/>
<path id="Vector 7" d="M21.5385 76.2821C21.5385 76.2821 35.6895 70.7415 45.2921 70.9008C54.241 71.0494 67.3077 76.2821 67.3077 76.2821" stroke="white"/>
<path id="Vector 8" d="M20.641 78.975C20.641 78.975 26.0413 77.1801 29.6154 77.1801C33.1895 77.1801 35.0158 79.0111 38.5897 78.975C41.992 78.9406 43.7131 77.2145 47.1154 77.1801C50.6893 77.144 52.5197 79.145 56.0897 78.975C58.9765 78.8375 60.3808 77.0838 63.2692 77.1801C65.8193 77.2651 69.5513 78.975 69.5513 78.975" stroke="white"/>
</g>
</g>
</g>
</svg>
