<svg width="79" height="79" viewBox="0 0 79 79" fill="none" xmlns="http://www.w3.org/2000/svg">
<g id="tild3931-3734-4738-b334-663531373534__icon_1.svg">
<path id="Vector" d="M64.6045 35.2889L61.4404 33.9192C61.3145 33.3668 61.1669 32.8149 60.9993 32.2709L63.0541 29.5028C63.2353 29.2587 63.2541 28.9302 63.1022 28.6671L60.0523 23.3845C59.9002 23.1212 59.6065 22.9735 59.3041 23.0083L55.8747 23.4064C55.489 22.9912 55.0859 22.5882 54.6708 22.2025L55.0687 18.7731C55.1038 18.4709 54.956 18.1769 54.6926 18.0248L49.4101 14.9749C49.1468 14.8229 48.8185 14.8419 48.5744 15.023L45.8062 17.0778C45.262 16.9101 44.7102 16.7625 44.1578 16.6366L42.7881 13.4726C42.6673 13.1936 42.3923 13.0129 42.0884 13.0129H35.9885C35.6847 13.0129 35.4096 13.1936 35.2888 13.4726L33.9191 16.6366C33.3667 16.7626 32.8148 16.9101 32.2708 17.0778L29.5027 15.0229C29.2587 14.8416 28.9302 14.8229 28.667 14.9749L23.3843 18.0247C23.1209 18.1768 22.9731 18.4708 23.0082 18.7729L23.4062 22.2023C22.991 22.588 22.588 22.9912 22.2022 23.4063L18.7728 23.0083C18.4705 22.9732 18.1767 23.121 18.0246 23.3844L14.9748 28.667C14.8228 28.9302 14.8416 29.2585 15.0228 29.5027L17.0776 32.2707C16.91 32.8151 16.7623 33.3668 16.6365 33.9191L13.4724 35.2889C13.1934 35.4097 13.0128 35.6848 13.0128 35.9886V42.0885C13.0128 42.3924 13.1934 42.6675 13.4724 42.7882L16.6365 44.158C16.7625 44.7102 16.91 45.2621 17.0776 45.8063L15.0228 48.5744C14.8416 48.8185 14.8228 49.1469 14.9748 49.4101L18.0246 54.6927C18.1767 54.956 18.4708 55.1041 18.7728 55.0688L22.2022 54.6709C22.588 55.086 22.991 55.489 23.4062 55.8748L23.0082 59.3042C22.9731 59.6064 23.1209 59.9003 23.3843 60.0525L28.667 63.1023C28.9302 63.2544 29.2585 63.2354 29.5027 63.0543L32.2708 60.9994C32.8151 61.167 33.3668 61.3147 33.9191 61.4405L35.2888 64.6046C35.4096 64.8837 35.6847 65.0642 35.9885 65.0642H42.0884C42.3923 65.0642 42.6673 64.8837 42.7881 64.6046L44.1578 61.4405C44.7101 61.3146 45.262 61.167 45.8062 60.9994L48.5743 63.0543C48.8182 63.2355 49.1468 63.2544 49.4099 63.1023L54.6925 60.0525C54.9559 59.9003 55.1037 59.6064 55.0686 59.3042L54.6706 55.8748C55.0859 55.489 55.4889 55.086 55.8746 54.6709L59.304 55.0688C59.6064 55.104 59.9001 54.956 60.0522 54.6927L63.1022 49.4101C63.2541 49.1469 63.2351 48.8185 63.054 48.5744L60.9992 45.8063C61.1668 45.2621 61.3145 44.7104 61.4403 44.158L64.6044 42.7882C64.8835 42.6675 65.0641 42.3924 65.0641 42.0885V35.9886C65.0641 35.6848 64.8836 35.4097 64.6045 35.2889ZM63.5391 41.5877L60.4763 42.9137C60.249 43.012 60.0837 43.2147 60.033 43.4571C59.8746 44.2127 59.6718 44.9709 59.4299 45.7105C59.353 45.9457 59.3949 46.2033 59.5424 46.4019L61.5312 49.0812L58.9822 53.4962L55.6629 53.111C55.4169 53.0828 55.1727 53.1751 55.0074 53.3592C54.4901 53.9357 53.9355 54.4901 53.3591 55.0075C53.1748 55.1728 53.0824 55.4172 53.1109 55.663L53.4961 58.9823L49.0811 61.5314L46.4016 59.5425C46.2032 59.3951 45.9454 59.3532 45.7103 59.4301C44.9706 59.672 44.2124 59.8748 43.457 60.0329C43.2144 60.0837 43.0118 60.249 42.9134 60.4763L41.5875 63.5392H36.4894L35.1634 60.4763C35.065 60.249 34.8624 60.0837 34.62 60.0329C33.8644 59.8747 33.1063 59.672 32.3665 59.4301C32.1315 59.3532 31.8737 59.3951 31.6752 59.5425L28.9958 61.5314L24.5808 58.9823L24.966 55.663C24.9945 55.4173 24.9021 55.1729 24.718 55.0077C24.1415 54.4903 23.5869 53.9357 23.0695 53.3592C22.9043 53.1749 22.66 53.0829 22.4142 53.1112L19.0947 53.4963L16.5455 49.0814L18.5344 46.402C18.6819 46.2034 18.7238 45.9457 18.6468 45.7106C18.4049 44.9709 18.2021 44.2127 18.044 43.4572C17.9932 43.2148 17.828 43.0122 17.6006 42.9138L14.5378 41.5877V36.4895L17.6007 35.1635C17.8281 35.0651 17.9933 34.8625 18.0441 34.6201C18.2023 33.8646 18.4051 33.1064 18.647 32.3666C18.7238 32.1315 18.682 31.8738 18.5345 31.6753L16.5455 28.9958L19.0946 24.5808L22.4139 24.966C22.66 24.9941 22.9041 24.902 23.0694 24.7178C23.5868 24.1415 24.1414 23.5868 24.7177 23.0695C24.902 22.9042 24.9944 22.6599 24.9659 22.4141L24.5807 19.0947L28.9957 16.5457L31.675 18.5345C31.8736 18.682 32.1313 18.724 32.3664 18.647C33.106 18.4051 33.8642 18.2023 34.6198 18.044C34.8623 17.9932 35.0649 17.8279 35.1632 17.6006L36.4894 14.5379H41.5875L42.9135 17.6007C43.0119 17.8281 43.2145 17.9933 43.457 18.0441C44.2126 18.2025 44.9707 18.4052 45.7104 18.6471C45.9455 18.7241 46.2032 18.6821 46.4018 18.5347L49.0812 16.5458L53.4962 19.0949L53.111 22.4142C53.0825 22.66 53.1751 22.9042 53.3592 23.0696C53.9357 23.5869 54.4903 24.1415 55.0075 24.718C55.1728 24.9021 55.4168 24.9945 55.663 24.9661L58.9823 24.5809L61.5314 28.9959L59.5425 31.6754C59.3951 31.8739 59.353 32.1318 59.4301 32.3668C59.6718 33.1064 59.8747 33.8646 60.033 34.6201C60.0838 34.8626 60.2491 35.0652 60.4764 35.1636L63.5391 36.4895V41.5877Z" fill="white"/>
<path id="Vector_2" d="M39.0385 19.1125C34.3036 19.1125 29.714 20.8032 26.1149 23.873C25.7945 24.1463 25.7563 24.6275 26.0295 24.9479C26.3028 25.2683 26.7842 25.3064 27.1045 25.0331C30.4279 22.1987 34.666 20.6375 39.0385 20.6375C49.1848 20.6375 57.4394 28.8921 57.4394 39.0384C57.4394 49.1848 49.1848 57.4393 39.0385 57.4393C28.8921 57.4393 20.6376 49.1848 20.6376 39.0384C20.6376 34.666 22.1987 30.4278 25.0332 27.1045C25.3064 26.7841 25.2683 26.3028 24.9479 26.0295C24.6274 25.7562 24.1462 25.7944 23.8731 26.1149C20.8032 29.714 19.1126 34.3036 19.1126 39.0384C19.1126 50.0257 28.0512 58.9643 39.0385 58.9643C50.0257 58.9643 58.9643 50.0257 58.9643 39.0384C58.9643 28.0512 50.0257 19.1125 39.0385 19.1125Z" fill="white"/>
<path id="Vector_3" d="M39.0385 55.9145C48.3439 55.9145 55.9145 48.3439 55.9145 39.0384C55.9145 29.733 48.3439 22.1624 39.0385 22.1624C29.733 22.1624 22.1624 29.733 22.1624 39.0384C22.1624 48.3439 29.733 55.9145 39.0385 55.9145ZM38.276 30.5496C38.276 30.1291 38.618 29.7871 39.0385 29.7871C39.4589 29.7871 39.8009 30.1291 39.8009 30.5496C39.8009 30.9701 39.4589 31.3121 39.0385 31.3121C38.618 31.3121 38.276 30.9701 38.276 30.5496ZM39.0385 23.6873C47.503 23.6873 54.3895 30.5738 54.3895 39.0384C54.3895 45.6271 50.217 51.2589 44.3758 53.4319V48.5039L47.2023 45.6774C47.3453 45.5344 47.4256 45.3405 47.4256 45.1383V41.1948C48.3131 40.88 48.9506 40.0326 48.9506 39.0385C48.9506 37.7772 47.9245 36.7512 46.6632 36.7512C45.4019 36.7512 44.3758 37.7772 44.3758 39.0385C44.3758 40.0326 45.0133 40.88 45.9006 41.1948V44.8225L43.0741 47.649C42.9311 47.792 42.8508 47.9859 42.8508 48.1881V53.9103C41.8683 54.1623 40.8483 54.319 39.8009 54.3705V32.7059C40.6883 32.3911 41.3258 31.5437 41.3258 30.5496C41.3258 29.2883 40.2998 28.2622 39.0385 28.2622C37.7771 28.2622 36.7511 29.2883 36.7511 30.5496C36.7511 31.5437 37.3886 32.3911 38.276 32.7059V54.3705C37.2286 54.319 36.2086 54.1622 35.2261 53.9101V48.188C35.2261 47.9859 35.1458 47.7919 35.0028 47.649L32.1763 44.8224V41.1946C33.0636 40.88 33.7011 40.0325 33.7011 39.0384C33.7011 37.7771 32.6751 36.751 31.4137 36.751C30.1524 36.751 29.1263 37.7771 29.1263 39.0384C29.1263 40.0325 29.7638 40.88 30.6513 41.1946V45.1382C30.6513 45.3404 30.7316 45.5344 30.8746 45.6773L33.7011 48.5038V53.4318C27.8599 51.2589 23.6874 45.6271 23.6874 39.0384C23.6874 30.5738 30.5739 23.6873 39.0385 23.6873ZM45.9006 39.0384C45.9006 38.618 46.2426 38.276 46.6632 38.276C47.0836 38.276 47.4256 38.618 47.4256 39.0384C47.4256 39.4589 47.0836 39.8008 46.6632 39.8008C46.2426 39.8008 45.9006 39.4589 45.9006 39.0384ZM30.6513 39.0384C30.6513 38.618 30.9933 38.276 31.4137 38.276C31.8343 38.276 32.1763 38.618 32.1763 39.0384C32.1763 39.4589 31.8343 39.8008 31.4137 39.8008C30.9933 39.8008 30.6513 39.4589 30.6513 39.0384Z" fill="white"/>
<path id="Vector_4" d="M39.0385 77.4263C60.2395 77.4263 77.4263 60.2395 77.4263 39.0385C77.4263 17.8374 60.2395 0.650635 39.0385 0.650635C17.8374 0.650635 0.650635 17.8374 0.650635 39.0385C0.650635 60.2395 17.8374 77.4263 39.0385 77.4263Z" stroke="white"/>
</g>
</svg>
