<svg width="100" height="100" viewBox="0 0 100 100" fill="none" xmlns="http://www.w3.org/2000/svg">
<g id="Group 433">
<g id="Group 429">
<g id="Group 427">
<circle id="Ellipse 72" cx="49.8077" cy="49.8077" r="49.3077" stroke="white"/>
</g>
</g>
<g id="Group 369">
<path id="Vector 1" d="M13.6154 48.5281H22.5773C23.1296 48.5281 23.5773 48.9758 23.5773 49.5281V78C23.5773 78.5523 23.1296 79 22.5773 79H13.6154" stroke="white" stroke-width="1.5" stroke-linecap="round" stroke-linejoin="round"/>
<circle id="Ellipse 71" cx="17.1314" cy="73.14" r="0.75" fill="white" stroke="white" stroke-width="0.843997"/>
<path id="Vector 2" d="M28.2653 69.6237C36.4692 69.0377 45.8452 76.6557 51.1192 76.6557H58.1512C65.1832 76.6557 72.9184 70.5613 78.0752 67.2797C82.7632 64.2964 86.2792 62.0057 83.9352 59.0757C82.5288 57.3178 79.9504 57.0833 73.3872 60.8337C70.4572 62.5917 63.894 66.1078 61.0812 66.1078C58.2684 66.1078 54.8306 66.1078 53.4632 66.1078C49.3612 66.1078 44.0872 64.9358 42.9152 64.9358M28.2653 53.2158H38.8132C41.1572 53.2158 48.7752 60.2478 51.1192 60.2478H58.7372C59.9092 60.2478 62.2532 60.2478 62.8392 61.4198M67.5272 32.7058L79.5228 44.1302C79.721 44.319 79.8332 44.5807 79.8332 44.8544V49.2858C79.8332 49.8381 79.3855 50.2858 78.8332 50.2858H73.8012C73.2489 50.2858 72.8012 49.8381 72.8012 49.2858V47.1838C72.8012 46.6315 72.3535 46.1838 71.8012 46.1838H70.8712C70.3189 46.1838 69.8712 45.7361 69.8712 45.1838V44.8398C69.8712 44.2875 69.4235 43.8398 68.8712 43.8398H67.244C67.0466 43.8398 66.8535 43.7814 66.6893 43.6719L65.6285 42.9647C65.3503 42.7792 65.1832 42.467 65.1832 42.1326V40.1518C65.1832 39.5995 64.7355 39.1518 64.1832 39.1518H61.0812M51.1192 24.5018C53.4632 23.916 54.6352 19.814 51.7052 18.056C48.1892 15.9464 43.5012 20.3999 47.0172 23.3298M49.3612 21.572C48.7752 21.572 43.5012 25.088 43.5012 33.2919M43.5012 33.2919C43.5012 38.4487 43.5012 40.9099 43.5012 41.4959C43.5012 43.8398 44.6732 46.1838 47.0172 46.1838C49.3612 46.1838 50.5332 43.6055 50.5332 40.3239M43.5012 33.2919C38.8132 30.362 38.2272 26.26 38.2272 22.744C38.2272 14.3056 45.8452 10.6659 52.2912 11.024C60.7296 11.4928 65.1832 16.884 65.1832 23.916C65.1832 30.3619 59.3232 39.1518 47.0172 36.2219" stroke="white" stroke-width="1.5" stroke-linecap="round" stroke-linejoin="round"/>
</g>
</g>
</svg>
